<?xml version="1.0" encoding="utf-8"?>
<!-- Generator: Adobe Illustrator 23.0.6, SVG Export Plug-In . SVG Version: 6.00 Build 0)  -->
<svg version="1.1" id="SEEDHAMMER_Constant_Font" xmlns="http://www.w3.org/2000/svg" xmlns:xlink="http://www.w3.org/1999/xlink"
	 x="0px" y="0px" viewBox="0 0 306 9" style="enable-background:new 0 0 306 9;" xml:space="preserve">
<style type="text/css">
	.st0{fill:none;stroke:#000000;stroke-width:0.1;stroke-miterlimit:10;}
</style>
<polyline id="A" class="st0" points="1,5 5,5 5,8 5,3 4,2 2,2 1,3 1,8 "/>
<polyline id="B" class="st0" points="8,5 10,5 11,6 11,7 10,8 7,8 8,8 8,2 7,2 10,2 11,3 11,4 10,5 "/>
<polyline id="C" class="st0" points="17,3 16,2 14,2 13,3 13,7 14,8 16,8 17,7 "/>
<polyline id="D" class="st0" points="19,5 19,2 21,2 23,4 23,6 21,8 19,8 19,5 "/>
<polyline id="E" class="st0" points="25,2 29,2 25,2 25,5 28,5 25,5 25,8 29,8 "/>
<polyline id="F" class="st0" points="31,2 35,2 31,2 31,5 34,5 31,5 31,8 "/>
<polyline id="G" class="st0" points="41,5 39,5 41,5 41,7 40,8 38,8 37,7 37,3 38,2 40,2 41,3 "/>
<polyline id="H" class="st0" points="43,2 43,8 43,5 47,5 47,2 47,8 "/>
<polyline id="I" class="st0" points="51,2 50,2 52,2 51,2 51,8 50,8 52,8 "/>
<polyline id="J" class="st0" points="59,5 59,7 58,8 56,8 55,7 56,8 58,8 59,7 59,2 55,2 "/>
<polyline id="K" class="st0" points="61,2 61,8 61,5 62,5 65,2 62,5 65,8 "/>
<polyline id="L" class="st0" points="67,2 67,8 71,8 "/>
<polyline id="M" class="st0" points="73,8 73,2 75,6 77,2 77,8 "/>
<polyline id="N" class="st0" points="79,8 79,2 83,8 83,2 "/>
<polyline id="O" class="st0" points="85,5 85,3 86,2 88,2 89,3 89,7 88,8 86,8 85,7 85,5 "/>
<polyline id="P" class="st0" points="91,5 94,5 95,4 95,3 94,2 91,2 91,8 "/>
<polyline id="Q" class="st0" points="97,5 97,3 98,2 100,2 101,3 101,7 100,8 99,5 100,8 98,8 97,7 97,5 "/>
<polyline id="R" class="st0" points="103,5 103,2 106,2 107,3 107,4 106,5 105,5 107,8 105,5 103,5 103,8 "/>
<polyline id="S" class="st0" points="109,3 110,2 112,2 113,3 112,2 110,2 109,3 109,4 110,5 112,5 113,6 113,7 112,8 110,8 109,7 "/>
<polyline id="T" class="st0" points="117,2 115,2 119,2 117,2 117,8 "/>
<polyline id="U" class="st0" points="121,2 121,7 122,8 124,8 125,7 125,2 "/>
<polyline id="V" class="st0" points="127,2 129,8 131,2 "/>
<polyline id="W" class="st0" points="133,2 134,8 135,4 136,8 137,2 "/>
<polyline id="X" class="st0" points="139,2 141,5 139,8 141,5 143,8 141,5 143,2 "/>
<polyline id="Y" class="st0" points="145,2 147,5 147,8 147,5 149,2 "/>
<polyline id="Z" class="st0" points="151,2 155,2 151,8 155,8 "/>
<polyline id="one" class="st0" points="159,2 157,3 159,2 159,8 157,8 161,8 "/>
<polyline id="two" class="st0" points="163,4 163,3 164,2 166,2 167,3 167,4 163,8 167,8 "/>
<polyline id="three" class="st0" points="169,3 170,2 172,2 173,3 173,4 172,5 171,5 172,5 173,6 173,7 172,8 170,8 169,7 "/>
<polyline id="four" class="st0" points="178,8 178,2 175,6 179,6 "/>
<polyline id="five" class="st0" points="185,2 181,2 181,5 184,5 185,6 185,7 184,8 182,8 181,7 "/>
<polyline id="six" class="st0" points="191,3 190,2 188,2 187,3 187,5 187,7 188,8 190,8 191,7 191,6 190,5 188,5 187,6 "/>
<polyline id="seven" class="st0" points="193,2 197,2 194,8 "/>
<polyline id="eight" class="st0" points="202,5 200,5 199,6 199,7 200,8 202,8 203,7 203,6 202,5 203,4 203,3 202,2 200,2 199,3 199,4 200,5 "/>
<polyline id="nine" class="st0" points="208,5 206,5 205,4 205,3 206,2 208,2 209,3 209,4 206,8 "/>
<polyline id="zero" class="st0" points="211,6 211,7 215,3 214,2 212,2 211,3 211,7 212,8 214,8 215,7 215,3 "/>
<g id="colon">
	<polyline class="st0" points="218,3 219,3 219,4 218,4 218,3 	"/>
	<polyline class="st0" points="218,7 219,7 219,8 218,8 218,7 	"/>
</g>
<line id="comma" class="st0" x1="225" y1="7" x2="224" y2="8"/>
<line id="slash" class="st0" x1="232" y1="2" x2="230" y2="8"/>
<line id="apostrophe" class="st0" x1="237" y1="2" x2="236" y2="4"/>
<polyline id="period" class="st0" points="242,7 243,7 243,8 242,8 242,7 "/>
<polyline id="leftparen" class="st0" points="250,2 249,4 249,6 250,8 "/>
<polyline id="rightparen" class="st0" points="254,2 255,4 255,6 254,8 "/>
<polyline id="leftbracket" class="st0" points="261,2 262,2 261,2 261,8 262,8 "/>
<polyline id="rightbracket" class="st0" points="267,2 266,2 267,2 267,8 266,8 "/>
<polyline id="leftcurlybrace" class="st0" points="275,8 274,8 273,7 273,6 272,5 273,4 273,4 273,4 273,3 274,2 275,2 "/>
<polyline id="rightcurlybrace" class="st0" points="277,2 278,2 279,3 279,4 280,5 279,6 279,6 279,6 279,7 278,8 277,8 "/>
<g id="hash">
	<line class="st0" x1="284" y1="2" x2="284" y2="8"/>
	<line class="st0" x1="286" y1="2" x2="286" y2="8"/>
	<line class="st0" x1="283" y1="4" x2="287" y2="4"/>
	<line class="st0" x1="283" y1="6" x2="287" y2="6"/>
</g>
<g id="star">
	<line class="st0" x1="291" y1="2" x2="291" y2="4"/>
	<line class="st0" x1="290" y1="2" x2="292" y2="4"/>
	<line class="st0" x1="290" y1="3" x2="292" y2="3"/>
	<line class="st0" x1="290" y1="4" x2="292" y2="2"/>
</g>
<polyline id="at" class="st0" points="299,7 298,8 296,8 295,7 295,4 295,3 296,2 298,2 299,3 299,6 298,5 298,4 297,3 296,4 296,6 297,7 298,6 "/>
<line id="dash" class="st0" x1="301" y1="5" x2="305" y2="5"/>
<line id="height" class="st0" x1="6" y1="0" x2="6" y2="9"/>
<line id="advance" class="st0" x1="0" y1="8" x2="6" y2="8"/>
<line id="baseline" class="st0" x1="2" y1="8" x2="4" y2="8"/>
</svg>
