<?xml version="1.0" encoding="utf-8"?>
<!-- Generator: Adobe Illustrator 23.0.6, SVG Export Plug-In . SVG Version: 6.00 Build 0)  -->
<svg version="1.1" id="SeedHammer_Monospace_Font" xmlns="http://www.w3.org/2000/svg" xmlns:xlink="http://www.w3.org/1999/xlink"
	 x="0px" y="0px" viewBox="0 0 308 6.7" style="enable-background:new 0 0 308 6.7;" xml:space="preserve">
<style type="text/css">
	.st0{fill:none;}
</style>
<line id="baseline" class="st0" x1="302" y1="5" x2="304.1" y2="5"/>
<line id="advance" class="st0" x1="0" y1="5" x2="4" y2="5"/>
<line id="height" class="st0" x1="0" y1="0" x2="0" y2="6.7"/>
<line id="size" class="st0" x1="4.5" y1="0" x2="4.5" y2="6.7"/>
<path id="a" class="st0" d="M1.1,2.6c0.6-0.5,2.1-0.3,2.1,0.9c0,0.5,0,0.6,0,1.5l0,0c0,0-0.8,0-1.6,0C1.2,5,0.8,4.7,0.8,4.3
	c0-0.3,0.3-0.7,1-0.7c0.1,0,1.4,0,1.4,0"/>
<path id="b" class="st0" d="M4.7,1.1V5C5.2,5,5.3,5,6,5s1.3-0.6,1.3-1.3c0-0.7-0.6-1.3-1.3-1.3c-0.7,0-0.7,0-1.3,0"/>
<path id="c" class="st0" d="M11.1,2.7c-0.2-0.2-0.6-0.4-0.9-0.4c-0.7,0-1.3,0.6-1.3,1.3C8.9,4.4,9.5,5,10.2,5
	c0.4,0,0.7-0.1,0.9-0.4"/>
<path id="d" class="st0" d="M15.3,1.1V5C15,5,14.7,5,14,5c-0.7,0-1.3-0.6-1.3-1.3c0-0.7,0.6-1.3,1.3-1.3c0.7,0,0.8,0,1.3,0"/>
<path id="e" class="st0" d="M16.8,3.6h2.4c0,0,0-0.1,0-0.1c0-0.7-0.6-1.2-1.2-1.2C17.3,2.4,16.8,2.9,16.8,3.6
	C16.8,4.4,17.3,5,18,5c0.3,0,0.7-0.1,1-0.3"/>
<g id="f">
	<line class="st0" x1="21" y1="2.7" x2="22.8" y2="2.7"/>
	<path class="st0" d="M22.9,1.1c-0.8,0-1,0.5-1,1.3c0,0.2,0,2.7,0,2.7"/>
</g>
<path id="g" class="st0" d="M24.7,5.7C24.8,5.8,25,6.3,26,6.3c0.9,0,1.3-0.7,1.3-1.4c0-0.5,0-1,0-1.2c0-0.7-0.6-1.3-1.3-1.3
	c-0.7,0-1.3,0.6-1.3,1.3C24.7,4.4,25.3,5,26,5c0.6,0,1.2-0.5,1.3-1.2"/>
<g id="h">
	<line class="st0" x1="28.8" y1="5" x2="28.8" y2="1.1"/>
	<path class="st0" d="M31.2,5c0,0,0-1.5,0-1.5c0-0.7-0.6-1.1-1.1-1.1c-0.6,0-1.2,0.4-1.2,1"/>
</g>
<g id="i">
	<line class="st0" x1="33.1" y1="5" x2="34.9" y2="5"/>
	<polyline class="st0" points="33.1,2.4 34,2.4 34,2.4 34,5 	"/>
	<path class="st0" d="M34.1,1.1C34.1,1.2,34,1.2,34.1,1.1c-0.1,0.1-0.2,0-0.2,0S34,1.1,34.1,1.1C34,1.1,34.1,1.1,34.1,1.1z"/>
</g>
<g id="j">
	<path class="st0" d="M38.5,1.1C38.5,1.2,38.5,1.2,38.5,1.1c-0.1,0.1-0.2,0-0.2,0S38.4,1.1,38.5,1.1C38.5,1.1,38.5,1.1,38.5,1.1z"/>
	<path class="st0" d="M36.8,5.4"/>
	<g>
		<path class="st0" d="M37.5,2.4h0.9l0,0c0,1.3,0,2.2,0,2.6c0,0.4-0.3,0.8-0.8,0.8c-0.4,0-0.8-0.3-0.8-0.8"/>
	</g>
</g>
<g id="k">
	<polyline class="st0" points="41,1.1 41,1.1 41,5 	"/>
	<line class="st0" x1="42.9" y1="2.4" x2="41" y2="4.1"/>
	<line class="st0" x1="41.7" y1="3.5" x2="43" y2="5"/>
</g>
<path id="l" class="st0" d="M45.1,1.1H46l0,0c0,0,0,3.2,0,3.2C46,4.7,46.2,5,46.7,5"/>
<g id="m">
	<line class="st0" x1="48.7" y1="5" x2="48.7" y2="2.3"/>
	<path class="st0" d="M48.7,3.2c0-1.1,1.3-1.1,1.3,0c0,0,0,1.8,0,1.8"/>
	<path class="st0" d="M50,3.2c0-1.1,1.3-1.1,1.3,0c0,0,0,1.8,0,1.8"/>
</g>
<g id="n">
	<line class="st0" x1="52.8" y1="5" x2="52.8" y2="2.3"/>
	<path class="st0" d="M52.8,3.5c0-1.6,2.4-1.6,2.4,0c0,0,0,1.5,0,1.5"/>
</g>
<path id="o" class="st0" d="M59.3,3.7C59.3,4.4,58.7,5,58,5s-1.3-0.6-1.3-1.3s0.6-1.3,1.3-1.3S59.3,2.9,59.3,3.7z"/>
<path id="p" class="st0" d="M60.7,6.3V2.4c0.5,0,0.6,0,1.3,0c0.7,0,1.3,0.6,1.3,1.3C63.3,4.4,62.7,5,62,5c-0.7,0-0.6,0-1.3,0"/>
<path id="q" class="st0" d="M67.3,6.3V2.4c-0.6,0-0.6,0-1.3,0S64.7,3,64.7,3.7C64.7,4.4,65.3,5,66,5c0.7,0,0.7,0,1.3,0"/>
<g id="r">
	<line class="st0" x1="69.6" y1="5" x2="69.6" y2="2.3"/>
	<path class="st0" d="M69.6,3.6c0-0.8,0.6-1.4,1.5-1.2"/>
</g>
<path id="s" class="st0" d="M74.9,2.7c-0.8-0.7-1.8-0.3-1.8,0.2c0,0.5,0.4,0.6,0.9,0.7c0.6,0.1,1,0.2,1,0.7c0,0.7-1.3,0.9-2,0.3"
	/>
<g id="t">
	<line class="st0" x1="77" y1="2.7" x2="78.8" y2="2.7"/>
	<path class="st0" d="M78.8,5c-0.8,0-1-0.4-1-1.3c0-0.2,0-2.3,0-2.3"/>
</g>
<g id="u">
	<line class="st0" x1="83.2" y1="2.3" x2="83.2" y2="5"/>
	<path class="st0" d="M83.2,3.8c0,1.6-2.4,1.6-2.4,0c0,0,0-1.5,0-1.5"/>
</g>
<polyline id="v" class="st0" points="87.3,2.4 86,5 84.8,2.4 "/>
<polyline id="w" class="st0" points="88.5,2.3 89.2,5 90,2.3 90.8,5 91.6,2.4 "/>
<g id="x">
	<line class="st0" x1="92.9" y1="2.3" x2="95.1" y2="5"/>
	<line class="st0" x1="95.1" y1="2.3" x2="92.9" y2="5"/>
</g>
<g id="y">
	<line class="st0" x1="96.8" y1="2.3" x2="98" y2="5"/>
	<line class="st0" x1="99.3" y1="2.3" x2="97.5" y2="6.3"/>
</g>
<polyline id="z" class="st0" points="101,2.3 103,2.3 101,5 103,5 "/>
<g id="A">
	<polyline class="st0" points="104.5,5 106,1.1 107.5,5 	"/>
	<line class="st0" x1="104.9" y1="4" x2="107.1" y2="4"/>
</g>
<path id="B" class="st0" d="M108.7,1.1c0,0,1.3,0,1.3,0c1.4,0,1.3,1.8,0,1.8c0,0-1.3,0-1.3,0s1.3,0,1.3,0c1.6,0,1.7,2.1,0,2.1
	c0,0-1.3,0-1.3,0V1.1"/>
<path id="C" class="st0" d="M115.1,1.5c-1-1.1-2.6-0.1-2.6,1.5c0,1.7,1.7,2.5,2.6,1.5"/>
<path id="D" class="st0" d="M116.7,5c0,0,0-3.9,0-3.9c0,0,0.9,0,0.9,0c0.9,0,1.7,0.7,1.7,2c0,1.1-0.7,1.9-1.7,1.9
	C117.6,5,116.7,5,116.7,5"/>
<g id="E">
	<polyline class="st0" points="123.3,1.1 120.7,1.1 120.7,5 123.3,5 	"/>
	<line class="st0" x1="120.7" y1="3" x2="122.6" y2="3"/>
</g>
<g id="F">
	<polyline class="st0" points="127.3,1.1 124.7,1.1 124.7,5 	"/>
	<line class="st0" x1="124.7" y1="3" x2="126.6" y2="3"/>
</g>
<path id="G" class="st0" d="M131.2,1.5c-0.1-0.2-0.5-0.5-1-0.5c-1,0-1.6,0.8-1.6,2c0,1.2,0.6,2,1.6,2c0.4,0,0.8-0.2,1-0.5
	c0,0,0-1.3,0-1.3l-0.9,0"/>
<g id="H">
	<line class="st0" x1="132.7" y1="1.1" x2="132.7" y2="5"/>
	<line class="st0" x1="135.3" y1="1.1" x2="135.3" y2="5"/>
	<line class="st0" x1="132.7" y1="3" x2="135.3" y2="3"/>
</g>
<g id="I">
	<line class="st0" x1="138" y1="1.1" x2="138" y2="5"/>
	<line class="st0" x1="137.1" y1="1.1" x2="138.9" y2="1.1"/>
	<line class="st0" x1="137.1" y1="5" x2="138.9" y2="5"/>
</g>
<path id="J" class="st0" d="M142.9,1.1c0,0,0,2.7,0,2.7c0,0.5-0.2,1.2-1.1,1.2c-0.9,0-1.1-0.7-1.1-1"/>
<g id="K">
	<polyline class="st0" points="144.8,1.1 144.8,1.1 144.8,5 	"/>
	<line class="st0" x1="147.2" y1="1.1" x2="144.8" y2="3.5"/>
	<line class="st0" x1="145.6" y1="2.7" x2="147.2" y2="5"/>
</g>
<path id="L" class="st0" d="M148.8,1.1V5c0.8,0,1.6,0,2.4,0"/>
<polyline id="M" class="st0" points="152.7,5 152.7,1.1 154,4.9 155.3,1.1 155.3,5 "/>
<polyline id="N" class="st0" points="156.7,5 156.7,1.1 159.3,5 159.3,1.1 "/>
<path id="O" class="st0" d="M163.3,3c0,1.1-0.6,2-1.3,2s-1.3-0.9-1.3-2s0.6-2,1.3-2S163.3,1.9,163.3,3z"/>
<path id="P" class="st0" d="M165,5V1.1l0,0c0,0,1,0,1.1,0c1.6,0,1.7,2.4,0,2.4c0,0-1.1,0-1.1,0"/>
<g id="Q">
	<path class="st0" d="M171.3,3c0,1.1-0.6,2-1.3,2c-0.7,0-1.3-0.9-1.3-2s0.6-2,1.3-2C170.7,1.1,171.3,1.9,171.3,3z"/>
	<line class="st0" x1="170.2" y1="3.4" x2="171.2" y2="5"/>
</g>
<g id="R">
	<path class="st0" d="M172.9,3.3c0,0,1,0,1.1,0c1.5,0,1.5-2.2-0.1-2.2c0,0-1,0-1,0V5"/>
	<path class="st0" d="M174.1,3.3"/>
	<line class="st0" x1="175.2" y1="5" x2="174.1" y2="3.3"/>
</g>
<path id="S" class="st0" d="M179.2,1.6c-0.7-1-2.3-0.6-2.3,0.3c0,0.7,0.4,0.9,1.1,1c0.9,0.2,1.3,0.4,1.3,1.2
	c0,1.1-1.9,1.4-2.5,0.3"/>
<g id="T">
	<line class="st0" x1="180.7" y1="1.1" x2="183.3" y2="1.1"/>
	<line class="st0" x1="182" y1="5" x2="182" y2="1.1"/>
</g>
<path id="U" class="st0" d="M184.7,1.1v2.6c0,0-0.1,1.4,1.3,1.4c1.4,0,1.3-1.4,1.3-1.4l0-2.6"/>
<polyline id="V" class="st0" points="191.4,1.1 190,5 188.6,1.1 "/>
<polyline id="W" class="st0" points="192.5,1.1 193.3,5 194,1.2 194.8,5 195.6,1.1 "/>
<g id="X">
	<line class="st0" x1="196.7" y1="1.1" x2="199.4" y2="5"/>
	<line class="st0" x1="199.4" y1="1.1" x2="196.7" y2="5"/>
</g>
<g id="Y">
	<polyline class="st0" points="200.6,1.1 202,3.6 202,5 	"/>
	<line class="st0" x1="202" y1="3.6" x2="203.4" y2="1.1"/>
</g>
<polyline id="Z" class="st0" points="204.6,1.1 207.4,1.1 204.6,5 207.4,5 "/>
<g id="one">
	<polyline class="st0" points="209.1,1.8 210,1.1 210,1.1 210,5 	"/>
	<line class="st0" x1="209.1" y1="5" x2="210.9" y2="5"/>
</g>
<path id="two" class="st0" d="M212.9,2.2c0-0.7,0.5-1.1,1.1-1.1c0.8,0,1,0.7,1,1.1c0,0.4-0.2,0.6-0.2,0.6L213,5h2.2"/>
<path id="three" class="st0" d="M217.1,1.9c0-0.6,0.6-0.9,1-0.9c0.5,0,0.9,0.3,0.9,0.8c0,0.7-0.5,1-0.9,1c0,0,0,0,0,0
	c0,0,0,0,0,0c0.7,0,1.1,0.5,1.1,1.1c0,0.5-0.4,1-1.1,1c-0.9,0-1.2-0.7-1.2-1.1"/>
<polyline id="four" class="st0" points="223.5,4 220.6,3.9 222.8,1.1 222.8,5 "/>
<path id="five" class="st0" d="M227,1.1h-1.9l0,1.5c0,0,0.6,0,0.9,0c0.7,0,1.3,0.4,1.3,1.3c0,0.6-0.4,1.1-1.2,1.1
	c-0.8,0-1.2-0.6-1.2-1.2"/>
<path id="six" class="st0" d="M230.5,1.1l-1.4,2.2c-0.3,0.5-0.2,1.2,0.4,1.5s1.2,0.2,1.5-0.4c0.3-0.5,0.2-1.2-0.4-1.5
	c-0.5-0.3-1.1-0.2-1.5,0.3"/>
<polyline id="seven" class="st0" points="232.9,1.1 235.2,1.1 233.3,5 "/>
<path id="eight" class="st0" d="M238,2.8c-0.3,0-0.9-0.2-0.9-0.9c0-0.4,0.3-0.8,0.9-0.8c0.5,0,0.9,0.4,0.9,0.8
	C238.9,2.5,238.5,2.8,238,2.8c-0.5,0-1.1,0.4-1.1,1.2c0,0.6,0.4,1.1,1.1,1.1c0.6,0,1.1-0.4,1.1-1.1C239.1,3.2,238.6,2.8,238,2.8"/>
<path id="nine" class="st0" d="M241.6,5l1.4-2.2c0.3-0.5,0.2-1.2-0.4-1.5s-1.2-0.2-1.5,0.4c-0.3,0.5-0.2,1.2,0.4,1.5
	c0.5,0.3,1.1,0.2,1.5-0.3"/>
<path id="zero" class="st0" d="M245.4,4.6l1.3-3.1c0,0,0.1,0,0.1,0c0.3,0.4,0.4,0.9,0.4,1.5c0,1.1-0.5,2-1.1,2s-1.1-0.9-1.1-2
	s0.5-2,1.1-2c0.2,0,0.5,0.2,0.7,0.4"/>
<g id="colon">
	<path class="st0" d="M249.8,5C249.8,5,249.8,5,249.8,5C249.8,5,249.7,5,249.8,5C249.7,4.9,249.8,4.9,249.8,5
		C249.8,4.9,249.8,4.9,249.8,5z"/>
	<path class="st0" d="M249.8,2.5C249.8,2.5,249.8,2.6,249.8,2.5C249.8,2.6,249.7,2.5,249.8,2.5C249.7,2.5,249.8,2.5,249.8,2.5
		C249.8,2.5,249.8,2.5,249.8,2.5z"/>
</g>
<path id="comma" class="st0" d="M253.8,4.9c0.4,0.3-0.1,1-0.1,1"/>
<line id="slash" class="st0" x1="257.2" y1="5.5" x2="258.9" y2="1.1"/>
<path id="apostrophe" class="st0" d="M262,1.1c0.2,0.4-0.2,1-0.2,1"/>
<path id="period" class="st0" d="M266.1,5C266.1,5,266.1,5,266.1,5C266,5,266,5,266.1,5C266,5,266,4.9,266.1,5
	C266.1,4.9,266.1,5,266.1,5z"/>
<path id="leftparen" class="st0" d="M271,5.9c0,0-1.2-2.2,0-4.6"/>
<path id="rightparen" class="st0" d="M273.5,1.3c0,0,1.2,2.2,0,4.6"/>
<polyline id="leftbracket" class="st0" points="279,1.3 278.2,1.3 278.2,5.9 279,5.9 "/>
<polyline id="rightbracket" class="st0" points="281.5,5.9 282.2,5.9 282.2,1.3 281.5,1.3 "/>
<path id="leftcurlybrace" class="st0" d="M286.8,1.3c0,0-0.6-0.1-0.6,0.5c0,0.2,0,1,0,1.3c0,0.4-0.6,0.4-0.6,0.4s0.6,0,0.6,0.5
	c0,0.3,0,1,0,1.2c0,0.6,0.6,0.5,0.6,0.5"/>
<path id="rightcurlybrace" class="st0" d="M289.6,5.9c0,0,0.6,0.1,0.6-0.5c0-0.2,0-1,0-1.3c0-0.4,0.6-0.4,0.6-0.4s-0.6,0-0.6-0.5
	c0-0.3,0-1,0-1.2c0-0.6-0.6-0.5-0.6-0.5"/>
<g id="hash">
	<line class="st0" x1="293.7" y1="1.2" x2="293.1" y2="4.7"/>
	<line class="st0" x1="295" y1="1.2" x2="294.4" y2="4.7"/>
	<line class="st0" x1="292.9" y1="2.4" x2="295.4" y2="2.4"/>
	<line class="st0" x1="292.7" y1="3.6" x2="295.2" y2="3.6"/>
</g>
<g id="star">
	<line class="st0" x1="298" y1="1.8" x2="298.6" y2="1.7"/>
	<polyline class="st0" points="298.1,1.3 298,1.8 297.5,1.7 	"/>
	<polyline class="st0" points="297.7,2.3 298,1.8 298.4,2.3 	"/>
</g>
<path id="at" class="st0" d="M302.6,4.9c-0.6,0.5-1.8-0.1-1.8-1.6c0-1.3,0.6-1.9,1.3-1.9c0.9,0,1.3,1,1.3,1.8
	c0,0.8-0.2,1.2-0.5,1.1c-0.1-0.1-0.1-0.3-0.1-0.5c0-0.1,0-0.4,0-0.6c0-0.7-0.3-0.9-0.6-0.9c-0.5,0-0.7,0.5-0.7,0.9
	c0,1,0.9,1.2,1.1,0.6"/>
<line id="dash" class="st0" x1="305.1" y1="3" x2="307.1" y2="3"/>
</svg>
